<svg id="Layer_1" data-name="Layer 1" xmlns="http://www.w3.org/2000/svg" xmlns:xlink="http://www.w3.org/1999/xlink" viewBox="0 0 370.77 370.77"><defs><style>.cls-1{font-size:657.86px;fill:#231f20;font-family:SVN-HemiHead, SVN-Hemi Head;}.cls-2{fill:url(#Orange_Yellow_2);}.cls-3,.cls-4{fill:#fff;}.cls-4,.cls-5,.cls-6{fill-rule:evenodd;}.cls-5{fill:url(#linear-gradient);}.cls-6{fill:url(#linear-gradient-2);}</style><linearGradient id="Orange_Yellow_2" x1="-21.57" y1="388.76" x2="421.16" y2="-46.3" gradientUnits="userSpaceOnUse"><stop offset="0" stop-color="#fcef44"/><stop offset="0.04" stop-color="#fce335"/><stop offset="0.12" stop-color="#fdd322"/><stop offset="0.2" stop-color="#fdca17"/><stop offset="0.28" stop-color="#fdc713"/><stop offset="0.67" stop-color="#f29140"/><stop offset="0.89" stop-color="#ed683c"/><stop offset="1" stop-color="#e93f3a"/></linearGradient><linearGradient id="linear-gradient" x1="201.39" y1="158.45" x2="266.11" y2="100.75" gradientUnits="userSpaceOnUse"><stop offset="0" stop-color="#b0b3b3" stop-opacity="0"/><stop offset="0.39" stop-color="#a9acac" stop-opacity="0.1"/><stop offset="1" stop-color="#9c9e9f" stop-opacity="0.3"/></linearGradient><linearGradient id="linear-gradient-2" x1="132.41" y1="217.21" x2="238.55" y2="158.82" xlink:href="#linear-gradient"/></defs><title>Jlaunchpad</title><text class="cls-1" transform="translate(222.73 -109.2)">LAUNCHPAD</text><circle class="cls-2" cx="185.39" cy="185.39" r="185.39"/><path class="cls-3" d="M158.45,77.48l-8.53,40.43h36.24l-14.47,67.27,52.71-27.62,16.87-80.08ZM166.8,209l-4.9,23q-1.5,6.43-3.82,8.69c-1.55,1.49-4.67,2.25-9.36,2.25H110.65l-2.91-.08L96.55,285c.38-.12,12,.14,12.39,0h53.55q19.62,0,29.13-8.91t13.56-27.34l14.33-66Z"/><path class="cls-3" d="M280.73,120.2a25.64,25.64,0,0,1,3.43-.6,33.17,33.17,0,0,1,3.5-.19c.59,0,1,0,1.32,0,.77-.75,1.56-1.44,2.35-2.09a25.49,25.49,0,0,0-15.11,1.36l5.65,9.45a48.89,48.89,0,0,1,6-7.67l-.31,0c-.92-.1-2.16-.21-3.41-.22a25.23,25.23,0,0,0-3.42.16c-.47.06-.86.12-1.12.18l-.43.08.41-.13C279.89,120.42,280.27,120.31,280.73,120.2Z"/><path class="cls-3" d="M296.77,147.15a24.73,24.73,0,0,0,1.77-2.94A32.39,32.39,0,0,0,300,141.1c.05-.11.08-.19.12-.29a48.32,48.32,0,0,1-9.62,1.69l5.66,9.46a24.8,24.8,0,0,0,8.41-12.71c-1,.4-2,.78-3,1.12-.12.25-.32.65-.61,1.17-.46.84-1.1,1.94-1.82,3a27.42,27.42,0,0,1-2.15,2.74c-.32.35-.59.63-.79.82l-.31.3.27-.34C296.26,147.84,296.5,147.53,296.77,147.15Z"/><path class="cls-3" d="M294,116.81c-.2.14-.4.28-.59.43s-.4.32-.61.48a44.66,44.66,0,0,0-10.2,11.6l1.33,2.22.32.54.25.41.38-.61,0,0c.17-.27.37-.56.59-.88a35,35,0,0,1,2.12-2.87c.6-.76,1.3-1.54,2-2.36s1.59-1.63,2.46-2.47,1.81-1.66,2.84-2.41l1.51-1.16.48-.32.59-.39.53-.36a.05.05,0,0,0,0,0,34.75,34.75,0,0,1,3.26-1.92,13.16,13.16,0,0,1,1.68-.84l1.67-.74.82-.37.83-.28,1.6-.55a23.29,23.29,0,0,1,3-.83l.18,0c.86-.2,1.65-.43,2.37-.52l.24,0,1.76-.24,1.74-.24-1.73.29-1.69.28-.29,0a23,23,0,0,0-2.25.56l-.28.08a21.73,21.73,0,0,0-2.94.91l-1.57.59-.81.31-.8.38-1.64.79a13.53,13.53,0,0,0-1.63.88c-1,.58-2,1.14-2.9,1.81l-.29.2-.25.18-.58.41-.72.51-1.46,1.19c-1,.76-1.83,1.65-2.71,2.45s-1.63,1.66-2.33,2.49-1.37,1.6-1.93,2.37c-.41.54-.77,1-1.11,1.53-.21.31-.41.6-.59.88s-.39.6-.55.87l-.31.49c-.28.47-.49.85-.62,1.1l-.05.1,2,3.27h.11c.29,0,.71,0,1.26,0l.58,0c.31,0,.65,0,1-.07s.69-.06,1.07-.11c.58-.06,1.2-.14,1.87-.25.93-.13,1.94-.35,3-.57s2.16-.55,3.3-.88,2.3-.72,3.43-1.24l1.74-.71.82-.41.61-.3.27-.14.32-.16c1-.5,2-1.12,3-1.7a14.8,14.8,0,0,0,1.55-1l1.46-1.07.72-.52.65-.57,1.26-1.11a22.56,22.56,0,0,0,2.2-2.15l.2-.22A20.87,20.87,0,0,0,319.1,122l.19-.23,1-1.36,1.07-1.39-1,1.42-1.05,1.44-.14.19c-.42.6-1,1.18-1.58,1.85l-.12.14a23.17,23.17,0,0,1-2.14,2.23l-1.24,1.15-.64.6-.71.55-1.45,1.12a14,14,0,0,1-1.53,1.08,37.49,37.49,0,0,1-3.23,2l0,0-.57.31-.59.32-.54.28-1.74.79c-1.15.55-2.34.92-3.47,1.36s-2.26.72-3.33,1-2.09.52-3,.68c-1.35.26-2.54.42-3.53.52l-1.05.09h-.06l-.72,0,.24.41.32.53,1.33,2.23a44.9,44.9,0,0,0,15.11-3.52l.65-.29.66-.31a36.81,36.81,0,0,0,11.71-8.94c.24-.27.45-.55.68-.82.65-.78,1.26-1.57,1.81-2.36a35.32,35.32,0,0,0,6.11-13.88A35.48,35.48,0,0,0,311.36,110c-.95.12-1.93.28-2.93.48l-1,.21A36.54,36.54,0,0,0,294,116.81Zm11,8a5,5,0,0,1-.38-.52,3.29,3.29,0,0,1-.27-.57,4.75,4.75,0,0,1-.28-.8,5.2,5.2,0,1,1,1.5,2.51A4.76,4.76,0,0,1,305,124.81Z"/><path class="cls-3" d="M312.77,119.41a4.3,4.3,0,1,0-1.49,5.9A4.32,4.32,0,0,0,312.77,119.41Zm-6.33,3.79a3.07,3.07,0,1,1,4.21,1.06A3.07,3.07,0,0,1,306.44,123.2Z"/><polygon class="cls-3" points="278.93 147.46 279.31 157.56 290.58 145.91 287.33 140.48 284.73 136.13 264.8 146.78 283.61 134.26 281.01 129.91 277.76 124.48 262.17 128.89 270.89 134.01 261.44 136.37 266.17 139.15 255.27 152.48 272.17 149.18 272.38 154.66 278.93 147.46"/><path class="cls-4" d="M282.81,143.57C89.6,250.24,8.76,270.24,108.26,179.48c-82.81,81.79-13.94,58.92,167.88-47.36l-1.66,4.25,3.59.68-3.58,3.66,6.72-1.37-3,4.66,4.56-.43Z"/><path class="cls-5" d="M278,144.42l-1.53-.74h0l1.2-1.89-8.21,1.68,5.22-5.35-2.49-.46.64-1.64c-25.86,15.08-51.89,29.92-78.19,44.22Q177.93,189.32,161,198c-9.37,4.8-18.81,9.5-28.34,14-7.57,3.56-15.22,7-23,10.12a175,175,0,0,1-17.52,6.18,47.69,47.69,0,0,1-12.12,2.15c-2.59,0-5.63-.47-7.23-2.75s-1.06-5.05-.22-7.41c.24-.67.52-1.35.83-2-2.82,3.9-7.88,11.64-5.72,15,2.48,3.8,14.13,1.45,17.55.7A165.57,165.57,0,0,0,104,228.48c8.35-2.87,16.59-6.12,24.73-9.52,10.24-4.26,20.36-8.8,30.42-13.48,12-5.6,24-11.42,35.83-17.36,26.95-13.5,53.58-27.68,80-42.19h0Z"/><path class="cls-6" d="M271.54,146.12l-.26.43c-26,14.24-52.11,28.16-78.57,41.41-21.42,10.73-43.19,21.19-65.31,30.41-7.24,3-14.58,5.93-22,8.54v-.58q2.24-.86,4.44-1.75c7.69-3.1,15.27-6.5,22.77-10,20.73-9.73,41.12-20.48,61.24-31.41,25-13.61,49.82-27.72,74.46-42.06l.4.07L262,148.09Z"/></svg>